<?xml version="1.0" standalone="no"?>
<!DOCTYPE svg PUBLIC "-//W3C//DTD SVG 20010904//EN"
 "http://www.w3.org/TR/2001/REC-SVG-20010904/DTD/svg10.dtd">
<svg version="1.0" xmlns="http://www.w3.org/2000/svg"
 width="196.000000pt" height="180.000000pt" viewBox="0 0 196.000000 180.000000"
 preserveAspectRatio="xMidYMid meet">

<g transform="translate(0.000000,180.000000) scale(0.100000,-0.100000)"
fill="#FF5A00" stroke="none">
<path d="M1085 1560 c-10 -11 -14 -20 -9 -20 5 0 15 9 22 20 7 11 11 20 9 20
-2 0 -12 -9 -22 -20z"/>
<path d="M910 1528 c-23 -38 -25 -54 -7 -61 7 -4 6 -6 -4 -6 -17 -1 -28 -47
-44 -181 -4 -30 -9 -62 -11 -71 -3 -9 3 -19 11 -23 11 -4 19 3 26 23 11 30 34
47 44 31 3 -4 0 -21 -6 -36 -8 -23 -7 -31 7 -41 12 -8 15 -20 10 -38 -6 -22
-9 -25 -21 -15 -8 7 -17 20 -20 31 -8 23 -35 25 -35 3 0 -26 88 -189 118 -216
40 -39 99 -41 133 -5 47 49 103 215 67 202 -11 -5 -45 -84 -53 -125 -4 -20
-39 -71 -54 -79 -25 -14 -63 16 -102 78 -34 53 -36 65 -9 58 19 -5 68 40 127
116 21 27 33 34 33 19 0 -4 -22 -34 -49 -66 -59 -70 -84 -117 -70 -131 7 -7
27 8 61 43 39 40 53 50 60 40 6 -9 8 -4 3 15 -4 19 0 37 13 55 11 15 18 36 16
47 -6 31 7 96 17 89 5 -3 9 -23 9 -44 0 -47 8 -70 25 -70 27 0 27 36 -1 183
-9 48 -20 90 -25 93 -4 2 -5 12 -2 22 6 15 5 15 -10 4 -18 -16 -39 -8 -31 12
3 7 -2 18 -10 25 -12 10 -17 7 -30 -18 -21 -39 -20 -47 1 -26 16 16 18 16 35
-5 24 -30 23 -48 -4 -52 -20 -3 -25 -13 -35 -68 -7 -36 -16 -76 -19 -90 l-7
-25 -7 25 c-3 14 0 52 7 85 16 76 16 88 1 80 -7 -4 -6 0 3 7 15 12 15 16 3 33
-8 10 -14 24 -14 29 0 6 4 5 9 -2 7 -11 10 -10 15 3 3 9 3 22 -1 27 -3 6 -1 8
5 4 6 -3 13 -2 17 4 4 6 -4 9 -19 8 -17 -2 -22 -6 -16 -12 13 -13 13 -29 0
-21 -5 3 -17 -12 -26 -34 -9 -23 -20 -38 -25 -35 -5 3 -7 9 -4 14 3 4 2 16 -1
25 -6 15 -9 14 -21 -6 -13 -24 -13 -23 -7 6 4 17 8 32 10 34 9 10 -19 29 -33
24 -11 -4 -14 -2 -9 5 4 7 2 12 -4 12 -6 0 -13 -7 -16 -15 -4 -8 -11 -15 -16
-15 -6 0 -3 11 6 25 9 14 14 25 11 25 -3 0 -14 -15 -25 -32z m75 -18 c4 -6 1
-9 -6 -8 -6 2 -14 -3 -17 -11 -3 -9 0 -11 8 -6 9 6 11 4 5 -4 -5 -9 -10 -10
-18 -2 -6 6 -16 11 -21 11 -6 0 -1 -7 11 -15 33 -23 62 -173 31 -163 -7 3 -14
15 -16 29 -1 13 -5 35 -8 49 l-6 25 -9 -24 c-7 -17 -6 -27 2 -32 8 -5 3 -18
-16 -43 -15 -20 -29 -36 -31 -36 -2 0 -2 31 -1 69 1 38 5 67 8 65 4 -2 10 16
13 41 4 25 11 46 17 46 5 1 13 2 18 3 5 0 13 4 17 9 10 9 12 9 19 -3z m190
-80 c3 -5 1 -10 -4 -10 -6 0 -11 5 -11 10 0 6 2 10 4 10 3 0 8 -4 11 -10z
m-175 -185 c0 -8 -4 -15 -10 -15 -5 0 -10 7 -10 15 0 8 5 15 10 15 6 0 10 -7
10 -15z"/>
<path d="M1116 1540 c4 -8 14 -23 22 -32 7 -9 11 -22 7 -27 -3 -6 -1 -11 4
-11 6 0 11 4 11 9 0 5 2 15 5 23 3 7 -2 22 -10 33 -16 19 -16 19 -9 -5 l7 -25
-22 25 c-13 14 -19 18 -15 10z"/>
<path d="M701 1307 c-7 -9 -10 -49 -8 -106 2 -62 0 -90 -7 -87 -64 27 -87 29
-114 9 -24 -19 -27 -27 -26 -79 1 -46 10 -76 38 -136 21 -43 41 -78 45 -78 5
0 27 14 50 31 32 22 41 35 36 47 -19 45 -17 64 10 92 l28 30 -17 97 c-23 129
-24 135 -5 138 9 2 16 -3 16 -9 0 -19 45 -76 60 -76 17 0 17 3 -8 47 -22 40
-68 93 -80 93 -3 0 -12 -6 -18 -13z"/>
<path d="M1380 1261 c-19 -10 -34 -23 -32 -30 1 -7 -2 -10 -8 -6 -16 10 -62
-23 -54 -38 4 -7 3 -9 -1 -4 -5 4 -19 -3 -32 -15 -24 -22 -32 -45 -11 -32 7 4
8 3 4 -4 -4 -6 3 -23 16 -37 l22 -25 43 42 c33 32 46 40 52 30 10 -16 -105
-239 -184 -357 l-57 -84 23 -30 c13 -17 28 -31 35 -31 47 0 270 415 290 540
12 72 -41 113 -106 81z"/>
<path d="M1083 1020 c-18 -21 -33 -40 -33 -44 0 -3 16 12 36 34 20 22 35 42
33 44 -2 1 -19 -14 -36 -34z"/>
<path d="M698 842 c-22 -4 -30 -35 -26 -93 4 -60 22 -51 26 13 5 104 30 96 31
-9 1 -76 20 -66 23 12 4 87 22 88 26 3 2 -38 7 -68 12 -68 12 0 14 139 3 141
-27 4 -81 4 -95 1z"/>
<path d="M843 842 c-9 -6 -17 -79 -14 -129 2 -27 21 -11 21 17 0 20 5 30 15
30 10 0 15 -10 15 -30 0 -16 5 -30 10 -30 6 0 10 30 10 69 0 54 -4 70 -16 75
-20 8 -26 7 -41 -2z m32 -37 c0 -16 -6 -30 -12 -32 -9 -3 -13 7 -13 32 0 25 4
35 13 33 6 -3 12 -17 12 -33z"/>
<path d="M938 839 c-14 -8 -18 -23 -18 -69 0 -55 2 -60 25 -66 45 -11 55 0 55
65 0 49 -4 62 -19 71 -23 12 -22 12 -43 -1z m32 -70 c0 -33 -4 -59 -10 -59 -6
0 -10 29 -10 66 0 41 4 63 10 59 6 -3 10 -33 10 -66z"/>
<path d="M686 657 c-14 -10 -17 -25 -14 -71 2 -36 8 -61 16 -64 8 -2 12 7 12
28 0 21 4 30 13 27 6 -2 12 -14 12 -27 0 -13 6 -25 13 -28 20 -6 17 134 -4
142 -22 8 -28 8 -48 -7z m42 -35 c2 -24 -1 -32 -12 -32 -12 0 -16 10 -16 36 0
45 24 42 28 -4z"/>
<path d="M785 656 c-12 -9 -15 -25 -13 -70 2 -36 8 -61 16 -64 9 -3 12 15 12
67 0 41 4 71 10 71 11 0 12 -3 14 -79 3 -82 24 -77 28 6 4 88 22 88 26 1 2
-38 7 -68 12 -68 12 0 14 139 3 141 -42 7 -95 5 -108 -5z"/>
<path d="M981 656 c-7 -9 -11 -38 -9 -73 l3 -58 38 0 c35 -1 37 1 37 32 0 29
-3 33 -25 33 -22 0 -25 4 -25 35 0 41 7 45 20 9 11 -27 30 -24 30 5 0 11 -10
21 -22 25 -32 8 -34 8 -47 -8z m39 -101 c0 -14 -4 -25 -10 -25 -5 0 -10 11
-10 25 0 14 5 25 10 25 6 0 10 -11 10 -25z"/>
<path d="M1082 658 c-7 -7 -12 -39 -12 -75 0 -49 3 -63 15 -63 10 0 15 10 15
30 0 17 5 30 10 30 6 0 10 -13 10 -30 0 -20 5 -30 15 -30 12 0 15 14 15 63 0
64 -11 87 -40 87 -9 0 -21 -5 -28 -12z m38 -39 c0 -16 -4 -29 -10 -29 -5 0
-10 16 -10 36 0 21 4 33 10 29 6 -3 10 -19 10 -36z"/>
<path d="M928 653 c-5 -28 -6 -73 -2 -100 9 -58 24 -35 24 37 0 40 -4 70 -10
70 -5 0 -11 -3 -12 -7z"/>
</g>
</svg>
