<svg xmlns="http://www.w3.org/2000/svg" xmlns:xlink="http://www.w3.org/1999/xlink" width="500" zoomAndPan="magnify" viewBox="0 0 375 374.999991" height="500" preserveAspectRatio="xMidYMid meet" version="1.0"><defs><clipPath id="3b8866c28d"><path d="M 107.777344 108 L 138 108 L 138 125 L 107.777344 125 Z M 107.777344 108 " clip-rule="nonzero"/></clipPath><clipPath id="3479ed6007"><path d="M 169 92 L 177.527344 92 L 177.527344 113 L 169 113 Z M 169 92 " clip-rule="nonzero"/></clipPath><clipPath id="9e5eb34257"><path d="M 151 118 L 172 118 L 172 125.964844 L 151 125.964844 Z M 151 118 " clip-rule="nonzero"/></clipPath><clipPath id="923c52bc66"><path d="M 159 105 L 177.527344 105 L 177.527344 119 L 159 119 Z M 159 105 " clip-rule="nonzero"/></clipPath><clipPath id="527660dc7b"><path d="M 109 124 L 137 124 L 137 125.964844 L 109 125.964844 Z M 109 124 " clip-rule="nonzero"/></clipPath><clipPath id="10ba76bf78"><path d="M 122 124 L 125 124 L 125 125.964844 L 122 125.964844 Z M 122 124 " clip-rule="nonzero"/></clipPath></defs><g clip-path="url(#3b8866c28d)"><path fill="#f89a00" d="M 136.574219 118.898438 L 134.402344 114.390625 C 133.082031 111.648438 130.722656 109.582031 127.84375 108.660156 L 126.710938 108.304688 L 119.335938 108.472656 L 117.511719 109.035156 C 115.285156 109.730469 113.390625 111.234375 112.21875 113.261719 L 108.316406 119.953125 C 107.910156 120.664062 107.777344 121.511719 107.984375 122.300781 C 108.355469 123.726562 109.636719 124.703125 111.085938 124.667969 C 115.191406 124.574219 122.976562 124.402344 123.085938 124.273438 C 123.21875 124.140625 130.925781 124.214844 134.308594 124.253906 C 135.257812 124.273438 136.128906 123.726562 136.539062 122.863281 C 137.171875 121.625 137.171875 120.15625 136.574219 118.898438 Z M 113.316406 119.894531 L 116.34375 116.0625 L 118.199219 120.945312 Z M 128.046875 120.945312 L 129.867188 115.722656 L 132.300781 119.6875 Z M 128.046875 120.945312 " fill-opacity="1" fill-rule="nonzero"/></g><path fill="#000000" d="M 129.550781 102.347656 C 129.550781 102.761719 129.472656 103.164062 129.316406 103.546875 C 129.160156 103.933594 128.933594 104.273438 128.644531 104.566406 C 128.351562 104.859375 128.015625 105.085938 127.636719 105.246094 C 127.257812 105.40625 126.863281 105.484375 126.449219 105.484375 C 126.039062 105.484375 125.644531 105.40625 125.261719 105.246094 C 124.882812 105.085938 124.546875 104.859375 124.257812 104.566406 C 123.964844 104.273438 123.742188 103.933594 123.582031 103.546875 C 123.425781 103.164062 123.347656 102.761719 123.347656 102.347656 C 123.347656 101.929688 123.425781 101.53125 123.582031 101.148438 C 123.742188 100.761719 123.964844 100.421875 124.257812 100.128906 C 124.546875 99.835938 124.882812 99.609375 125.261719 99.449219 C 125.644531 99.289062 126.039062 99.210938 126.449219 99.210938 C 126.863281 99.210938 127.257812 99.289062 127.636719 99.449219 C 128.015625 99.609375 128.351562 99.835938 128.644531 100.128906 C 128.933594 100.421875 129.160156 100.761719 129.316406 101.148438 C 129.472656 101.53125 129.550781 101.929688 129.550781 102.347656 Z M 129.550781 102.347656 " fill-opacity="1" fill-rule="nonzero"/><path fill="#000000" d="M 127.355469 96.628906 C 127.414062 96.964844 127.4375 97.300781 127.429688 97.640625 C 127.417969 97.980469 127.375 98.316406 127.300781 98.648438 C 127.222656 98.980469 127.113281 99.300781 126.972656 99.613281 C 126.832031 99.921875 126.664062 100.21875 126.464844 100.496094 C 126.265625 100.773438 126.039062 101.03125 125.789062 101.265625 C 125.539062 101.5 125.269531 101.710938 124.980469 101.894531 C 124.6875 102.078125 124.382812 102.230469 124.058594 102.351562 C 123.738281 102.476562 123.410156 102.570312 123.070312 102.628906 C 122.730469 102.6875 122.390625 102.714844 122.046875 102.707031 C 121.703125 102.699219 121.363281 102.660156 121.027344 102.585938 C 120.691406 102.515625 120.367188 102.410156 120.054688 102.273438 C 119.742188 102.136719 119.445312 101.972656 119.164062 101.777344 C 118.882812 101.585938 118.625 101.363281 118.390625 101.121094 C 118.152344 100.875 117.945312 100.609375 117.761719 100.324219 C 117.578125 100.039062 117.425781 99.738281 117.304688 99.421875 C 117.179688 99.105469 117.089844 98.777344 117.035156 98.445312 C 116.976562 98.109375 116.953125 97.773438 116.960938 97.433594 C 116.972656 97.09375 117.015625 96.757812 117.089844 96.429688 C 117.167969 96.097656 117.277344 95.773438 117.417969 95.464844 C 117.558594 95.152344 117.726562 94.859375 117.925781 94.578125 C 118.125 94.300781 118.351562 94.042969 118.601562 93.808594 C 118.851562 93.574219 119.121094 93.363281 119.410156 93.183594 C 119.703125 93 120.007812 92.847656 120.332031 92.722656 C 120.652344 92.597656 120.980469 92.507812 121.320312 92.449219 C 121.660156 92.386719 122 92.363281 122.34375 92.367188 C 122.6875 92.375 123.027344 92.414062 123.363281 92.488281 C 123.699219 92.5625 124.023438 92.664062 124.335938 92.800781 C 124.648438 92.9375 124.945312 93.101562 125.226562 93.296875 C 125.507812 93.492188 125.765625 93.710938 126 93.957031 C 126.238281 94.199219 126.445312 94.464844 126.628906 94.75 C 126.8125 95.039062 126.964844 95.339844 127.085938 95.65625 C 127.210938 95.972656 127.300781 96.296875 127.355469 96.628906 Z M 127.355469 96.628906 " fill-opacity="1" fill-rule="nonzero"/><g clip-path="url(#3479ed6007)"><path fill="#3f2952" d="M 171.726562 92.277344 C 171.726562 92.277344 175.5 92.316406 176.074219 98.046875 C 176.648438 103.773438 177.058594 112.136719 177.058594 112.136719 L 172.117188 112.566406 L 169.886719 98.027344 Z M 171.726562 92.277344 " fill-opacity="1" fill-rule="nonzero"/></g><path fill="#db7157" d="M 143.207031 113.601562 C 142.019531 113.019531 141.480469 111.589844 141.964844 110.351562 L 146.164062 99.679688 C 146.8125 97.988281 147.777344 97.238281 149.226562 97.519531 C 150.601562 97.800781 151.679688 99.171875 151.4375 100.5625 L 146.664062 112.265625 C 146.105469 113.65625 144.527344 114.257812 143.207031 113.601562 Z M 143.207031 113.601562 " fill-opacity="1" fill-rule="nonzero"/><path fill="#3f2952" d="M 152.664062 91.769531 C 152.664062 91.769531 149.449219 91.527344 147.109375 96.691406 C 144.75 101.914062 143.691406 105.390625 143.691406 105.390625 L 147.074219 111.269531 L 153.890625 98.496094 Z M 152.664062 91.769531 " fill-opacity="1" fill-rule="nonzero"/><path fill="#db7157" d="M 136.390625 93.234375 L 133.898438 94.175781 L 141.21875 110.953125 C 141.757812 112.792969 143.058594 114.484375 144.714844 113.542969 C 146.089844 112.753906 146.625 111.027344 145.902344 109.597656 Z M 136.390625 93.234375 " fill-opacity="1" fill-rule="nonzero"/><path fill="#db7157" d="M 136.316406 92.691406 L 136.148438 92.03125 C 135.925781 91.148438 135.496094 90.34375 134.902344 89.664062 L 133.863281 88.464844 C 133.621094 88.179688 133.175781 88.179688 132.933594 88.480469 C 132.730469 88.726562 132.710938 89.082031 132.859375 89.363281 L 133.675781 90.847656 L 128.734375 87.824219 C 128.492188 87.675781 128.179688 87.769531 128.066406 88.011719 L 127.992188 88.179688 C 127.898438 88.386719 127.953125 88.632812 128.140625 88.765625 L 131.390625 90.925781 L 127.324219 88.96875 C 127.082031 88.839844 126.765625 88.953125 126.65625 89.214844 L 126.597656 89.347656 C 126.503906 89.570312 126.597656 89.816406 126.804688 89.949219 L 130.316406 91.882812 L 127.34375 91 C 127.0625 90.90625 126.765625 91.113281 126.730469 91.414062 L 126.730469 91.46875 C 126.710938 91.675781 126.820312 91.863281 127.007812 91.957031 L 130.035156 93.085938 L 128.34375 92.859375 C 128.011719 92.765625 127.695312 93.066406 127.75 93.40625 C 127.789062 93.574219 127.898438 93.703125 128.046875 93.761719 L 135.722656 96.503906 L 136.277344 94.71875 C 136.464844 94.0625 136.484375 93.367188 136.316406 92.691406 Z M 136.316406 92.691406 " fill-opacity="1" fill-rule="nonzero"/><path fill="#000000" d="M 134.105469 93.515625 C 134.085938 93.515625 134.066406 93.515625 134.046875 93.5 C 133.15625 92.109375 133.601562 90.847656 133.621094 90.832031 C 133.640625 90.792969 133.660156 90.792969 133.695312 90.792969 C 133.734375 90.8125 133.734375 90.832031 133.734375 90.867188 C 133.734375 90.886719 133.304688 92.089844 134.160156 93.441406 C 134.179688 93.460938 134.179688 93.5 134.140625 93.515625 C 134.125 93.515625 134.125 93.515625 134.105469 93.515625 Z M 134.105469 93.515625 " fill-opacity="1" fill-rule="nonzero"/><path fill="#3f2952" d="M 172.359375 92.351562 L 161.65625 88.445312 L 150.957031 92.390625 C 150.398438 92.597656 150.121094 93.199219 150.304688 93.761719 C 151.496094 97.332031 153.890625 113.527344 153.574219 119.125 L 169.886719 119.125 C 170.203125 113.542969 171.855469 97.292969 173.027344 93.722656 C 173.195312 93.160156 172.914062 92.558594 172.359375 92.351562 Z M 172.359375 92.351562 " fill-opacity="1" fill-rule="nonzero"/><path fill="#db7157" d="M 152.664062 91.769531 C 152.664062 91.769531 154.503906 94.871094 161.472656 94.871094 C 168.4375 94.871094 170.574219 91.714844 170.574219 91.714844 L 161.65625 88.464844 Z M 152.664062 91.769531 " fill-opacity="1" fill-rule="nonzero"/><path fill="#000000" d="M 170.464844 102.554688 C 170.445312 102.554688 170.445312 102.554688 170.425781 102.554688 C 170.351562 102.535156 170.316406 102.460938 170.332031 102.386719 L 171.523438 98.027344 C 171.539062 97.949219 171.613281 97.914062 171.691406 97.933594 C 171.765625 97.949219 171.800781 98.027344 171.78125 98.101562 L 170.59375 102.460938 C 170.574219 102.515625 170.519531 102.554688 170.464844 102.554688 Z M 170.464844 102.554688 " fill-opacity="1" fill-rule="nonzero"/><path fill="#000000" d="M 152.554688 101.164062 C 152.496094 101.164062 152.441406 101.125 152.421875 101.070312 L 151.605469 98.363281 C 151.585938 98.289062 151.625 98.214844 151.699219 98.195312 C 151.773438 98.175781 151.847656 98.214844 151.867188 98.289062 L 152.683594 100.996094 C 152.703125 101.070312 152.664062 101.144531 152.589844 101.164062 C 152.570312 101.144531 152.570312 101.164062 152.554688 101.164062 Z M 152.554688 101.164062 " fill-opacity="1" fill-rule="nonzero"/><path fill="#000000" d="M 167.042969 76.214844 C 167.359375 79.707031 164.40625 82.828125 160.859375 83.144531 C 157.308594 83.464844 154.1875 80.890625 153.890625 77.417969 C 153.574219 73.921875 156.214844 70.839844 159.742188 70.519531 C 163.292969 70.183594 166.746094 72.71875 167.042969 76.214844 Z M 167.042969 76.214844 " fill-opacity="1" fill-rule="nonzero"/><path fill="#000000" d="M 166.933594 75.480469 C 166.933594 75.480469 167.34375 77.640625 168.105469 78.769531 C 169.253906 80.460938 170.425781 82.527344 170.296875 84.613281 L 153.09375 86.660156 C 153.09375 86.660156 152.683594 83.316406 154.132812 81.699219 C 155.582031 80.101562 154.152344 76.476562 154.152344 76.476562 Z M 166.933594 75.480469 " fill-opacity="1" fill-rule="nonzero"/><path fill="#db7157" d="M 158.5 84.441406 L 158.664062 90.90625 L 164.296875 90.058594 L 163.308594 80.289062 Z M 158.5 84.441406 " fill-opacity="1" fill-rule="nonzero"/><path fill="#000000" d="M 158.574219 87.5625 C 158.574219 87.5625 161.546875 87.617188 161.824219 84.066406 L 158.515625 85.53125 Z M 158.574219 87.5625 " fill-opacity="0.38" fill-rule="nonzero"/><path fill="#db7157" d="M 154.632812 74.222656 C 154.207031 74.65625 153.964844 75.21875 153.910156 75.820312 C 153.722656 77.585938 153.332031 81.023438 154.113281 82.828125 C 155.117188 85.15625 157.179688 86.507812 160.261719 85.625 C 160.261719 85.625 163.980469 84.667969 164.3125 79.933594 C 164.832031 72.191406 158.238281 70.558594 154.632812 74.222656 Z M 154.632812 74.222656 " fill-opacity="1" fill-rule="nonzero"/><path fill="#000000" d="M 154.855469 79.859375 C 154.839844 80.085938 154.652344 80.273438 154.410156 80.253906 C 154.1875 80.234375 154.003906 80.046875 154.019531 79.800781 C 154.039062 79.578125 154.226562 79.390625 154.46875 79.40625 C 154.707031 79.425781 154.875 79.613281 154.855469 79.859375 Z M 154.855469 79.859375 " fill-opacity="1" fill-rule="nonzero"/><path fill="#000000" d="M 158.3125 79.21875 C 158.292969 79.445312 158.109375 79.632812 157.867188 79.613281 C 157.625 79.59375 157.457031 79.40625 157.476562 79.164062 C 157.496094 78.9375 157.679688 78.75 157.921875 78.769531 C 158.144531 78.804688 158.3125 78.996094 158.3125 79.21875 Z M 158.3125 79.21875 " fill-opacity="1" fill-rule="nonzero"/><path fill="#000000" d="M 156.195312 81.679688 C 156.175781 81.679688 156.175781 81.679688 156.15625 81.679688 L 155.46875 81.644531 C 155.433594 81.644531 155.394531 81.625 155.378906 81.585938 C 155.359375 81.550781 155.339844 81.53125 155.359375 81.492188 L 155.5625 80.441406 C 155.582031 80.367188 155.636719 80.328125 155.710938 80.347656 C 155.785156 80.367188 155.824219 80.421875 155.804688 80.496094 L 155.617188 81.417969 L 156.15625 81.457031 C 156.230469 81.457031 156.289062 81.511719 156.269531 81.585938 C 156.289062 81.625 156.25 81.664062 156.195312 81.679688 Z M 156.195312 81.679688 " fill-opacity="1" fill-rule="nonzero"/><path fill="#000000" d="M 156.640625 77.621094 C 156.679688 77.90625 156.957031 78.09375 157.234375 78.035156 C 157.664062 77.941406 158.277344 77.828125 158.890625 77.886719 C 159.113281 77.90625 159.316406 77.753906 159.351562 77.511719 C 159.371094 77.285156 159.222656 77.117188 159.019531 77.039062 C 158.589844 76.910156 157.921875 76.703125 156.976562 77.097656 C 156.753906 77.191406 156.601562 77.398438 156.640625 77.621094 Z M 156.640625 77.621094 " fill-opacity="1" fill-rule="nonzero"/><path fill="#000000" d="M 154.929688 77.980469 C 154.949219 78.261719 154.820312 78.523438 154.632812 78.5625 C 154.355469 78.601562 153.929688 78.710938 153.554688 78.957031 C 153.40625 79.050781 153.257812 78.957031 153.203125 78.769531 C 153.148438 78.582031 153.222656 78.355469 153.332031 78.222656 C 153.574219 77.960938 153.964844 77.566406 154.632812 77.605469 C 154.78125 77.605469 154.894531 77.753906 154.929688 77.980469 Z M 154.929688 77.980469 " fill-opacity="1" fill-rule="nonzero"/><path fill="#ffffff" d="M 155.953125 82.621094 L 158.183594 81.886719 C 158.183594 81.886719 158.515625 82.808594 157.402344 83.164062 C 156.304688 83.523438 155.953125 82.621094 155.953125 82.621094 Z M 155.953125 82.621094 " fill-opacity="1" fill-rule="nonzero"/><path fill="#000000" d="M 163.21875 80.121094 C 163.21875 80.121094 160.28125 78.542969 161.398438 74.9375 C 161.398438 74.9375 165.316406 75.742188 164.742188 76.289062 C 164.164062 76.832031 163.21875 80.121094 163.21875 80.121094 Z M 163.21875 80.121094 " fill-opacity="1" fill-rule="nonzero"/><path fill="#000000" d="M 162.289062 75.914062 C 162.289062 75.914062 158.980469 76.4375 152.886719 76.777344 C 152.886719 76.777344 152.777344 71.742188 158.648438 70.691406 C 164.089844 69.714844 166.207031 74.464844 165.296875 78.824219 L 162.976562 79.671875 Z M 162.289062 75.914062 " fill-opacity="1" fill-rule="nonzero"/><path fill="#db7157" d="M 166.394531 80.027344 C 166.394531 80.304688 166.34375 80.570312 166.238281 80.824219 C 166.132812 81.082031 165.984375 81.308594 165.789062 81.503906 C 165.597656 81.699219 165.375 81.847656 165.121094 81.953125 C 164.867188 82.058594 164.605469 82.113281 164.332031 82.113281 C 164.058594 82.113281 163.796875 82.058594 163.542969 81.953125 C 163.289062 81.847656 163.066406 81.699219 162.875 81.503906 C 162.679688 81.308594 162.53125 81.082031 162.425781 80.824219 C 162.324219 80.570312 162.269531 80.304688 162.269531 80.027344 C 162.269531 79.75 162.324219 79.484375 162.425781 79.230469 C 162.53125 78.972656 162.679688 78.75 162.875 78.554688 C 163.066406 78.359375 163.289062 78.207031 163.542969 78.101562 C 163.796875 77.996094 164.058594 77.941406 164.332031 77.941406 C 164.605469 77.941406 164.867188 77.996094 165.121094 78.101562 C 165.375 78.207031 165.597656 78.359375 165.789062 78.554688 C 165.984375 78.75 166.132812 78.972656 166.238281 79.230469 C 166.34375 79.484375 166.394531 79.75 166.394531 80.027344 Z M 166.394531 80.027344 " fill-opacity="1" fill-rule="nonzero"/><path fill="#000000" d="M 163.402344 80.875 L 163.386719 80.875 C 163.328125 80.855469 163.273438 80.796875 163.292969 80.742188 C 163.367188 80.179688 163.609375 79.765625 163.960938 79.5 C 164.519531 79.105469 165.1875 79.21875 165.222656 79.238281 C 165.28125 79.257812 165.335938 79.3125 165.316406 79.371094 C 165.296875 79.425781 165.242188 79.484375 165.1875 79.464844 C 165.1875 79.464844 164.574219 79.351562 164.109375 79.691406 C 163.792969 79.914062 163.609375 80.273438 163.535156 80.777344 C 163.515625 80.816406 163.460938 80.855469 163.402344 80.875 Z M 163.402344 80.875 " fill-opacity="1" fill-rule="nonzero"/><g clip-path="url(#9e5eb34257)"><path fill="#f89a00" d="M 153.574219 118.75 L 151.476562 125.964844 L 171.96875 125.964844 L 169.851562 118.75 Z M 153.574219 118.75 " fill-opacity="1" fill-rule="nonzero"/></g><path fill="#ffffff" d="M 162.828125 91.84375 C 162.492188 91.335938 161.953125 90.941406 161.359375 90.8125 C 160.691406 90.660156 160.003906 90.792969 159.335938 90.925781 C 158.480469 91.09375 157.625 91.261719 156.769531 91.449219 C 156.195312 91.5625 155.601562 91.695312 155.0625 91.976562 C 154.542969 92.257812 154.078125 92.726562 153.964844 93.292969 C 153.6875 92.785156 153.128906 92.484375 152.554688 92.371094 C 151.976562 92.277344 151.382812 92.332031 150.808594 92.410156 C 150.101562 92.503906 149.394531 92.578125 148.6875 92.671875 C 148.1875 92.726562 147.574219 92.859375 147.40625 93.347656 C 147.519531 93.421875 147.648438 93.460938 147.761719 93.535156 C 148.316406 93.929688 148.875 94.304688 149.523438 94.53125 C 150.195312 94.757812 150.898438 94.792969 151.605469 94.777344 C 153.277344 94.757812 154.949219 94.476562 156.605469 94.15625 C 158.796875 93.742188 161.210938 93.367188 162.828125 91.84375 Z M 162.828125 91.84375 " fill-opacity="1" fill-rule="nonzero"/><path fill="#3f2952" d="M 146.8125 92.914062 L 153.054688 93.667969 L 154.894531 93.367188 L 163.609375 90.191406 L 165.632812 102.929688 L 156.917969 106.199219 L 154.949219 106.519531 L 148.835938 105.691406 Z M 146.8125 92.914062 " fill-opacity="1" fill-rule="nonzero"/><path fill="#db7157" d="M 146.8125 92.914062 L 153.054688 93.667969 L 154.894531 93.367188 L 163.609375 90.191406 L 165.632812 102.929688 L 156.917969 106.199219 L 154.949219 106.519531 L 148.835938 105.691406 Z M 146.8125 92.914062 " fill-opacity="0.56" fill-rule="nonzero"/><path fill="#f89a00" d="M 153.054688 93.671875 L 154.886719 93.375 L 156.917969 106.195312 L 155.085938 106.492188 Z M 153.054688 93.671875 " fill-opacity="1" fill-rule="nonzero"/><g clip-path="url(#923c52bc66)"><path fill="#db7157" d="M 177.058594 112.136719 L 161.804688 105.277344 L 159.875 107.25 L 171.652344 117.546875 C 173.957031 119.558594 177.523438 117.714844 177.261719 114.652344 Z M 177.058594 112.136719 " fill-opacity="1" fill-rule="nonzero"/></g><path fill="#db7157" d="M 160.933594 99.058594 L 162.640625 101.859375 L 163.273438 101.539062 C 163.496094 101.425781 163.792969 101.464844 163.960938 101.652344 C 164.148438 101.839844 164.164062 102.140625 164.015625 102.347656 L 161.898438 105.371094 L 159.855469 107.25 C 158.367188 105.765625 158.332031 104.753906 158.554688 104.132812 C 158.515625 104.058594 158.5 104 158.480469 103.925781 L 157.605469 101.558594 C 157.496094 101.332031 157.570312 101.070312 157.792969 100.957031 C 157.941406 100.863281 158.203125 100.824219 158.480469 101.277344 L 158.203125 100.824219 C 158.089844 100.601562 158.164062 100.316406 158.40625 100.1875 C 158.609375 100.074219 158.890625 100.1875 159.09375 100.429688 L 158.925781 100.09375 C 158.796875 99.847656 158.90625 99.527344 159.1875 99.417969 C 159.425781 99.324219 159.707031 99.417969 159.835938 99.640625 L 160.132812 100.128906 L 159.949219 99.527344 C 159.835938 99.246094 159.964844 98.929688 160.261719 98.816406 C 160.503906 98.703125 160.785156 98.835938 160.933594 99.058594 Z M 160.933594 99.058594 " fill-opacity="1" fill-rule="nonzero"/><path fill="#000000" d="M 160.988281 101.785156 C 160.96875 101.785156 160.949219 101.765625 160.933594 101.746094 L 159.929688 100 C 159.910156 99.960938 159.929688 99.921875 159.949219 99.921875 C 159.984375 99.90625 160.023438 99.921875 160.023438 99.941406 L 161.023438 101.691406 C 161.042969 101.726562 161.023438 101.765625 161.007812 101.765625 C 161.007812 101.785156 160.988281 101.785156 160.988281 101.785156 Z M 160.988281 101.785156 " fill-opacity="1" fill-rule="nonzero"/><path fill="#000000" d="M 159.949219 102.160156 C 159.929688 102.160156 159.910156 102.140625 159.890625 102.121094 L 159.074219 100.507812 C 159.054688 100.488281 159.074219 100.449219 159.09375 100.429688 C 159.113281 100.414062 159.148438 100.429688 159.167969 100.449219 L 159.984375 102.066406 C 160.003906 102.085938 159.984375 102.121094 159.964844 102.140625 C 159.964844 102.160156 159.964844 102.160156 159.949219 102.160156 Z M 159.949219 102.160156 " fill-opacity="1" fill-rule="nonzero"/><path fill="#000000" d="M 159.074219 102.535156 C 159.054688 102.535156 159.039062 102.515625 159.019531 102.496094 L 158.367188 101.125 C 158.351562 101.089844 158.367188 101.070312 158.386719 101.050781 C 158.40625 101.03125 158.441406 101.050781 158.460938 101.070312 L 159.113281 102.441406 C 159.128906 102.480469 159.113281 102.496094 159.09375 102.515625 C 159.09375 102.535156 159.074219 102.535156 159.074219 102.535156 Z M 159.074219 102.535156 " fill-opacity="1" fill-rule="nonzero"/><path fill="#db7157" d="M 126.785156 99.285156 C 126.785156 99.285156 127.472656 98.535156 128.160156 99.152344 C 129.21875 100.113281 128.046875 102.402344 126.542969 101.597656 Z M 126.785156 99.285156 " fill-opacity="1" fill-rule="nonzero"/><path fill="#000000" d="M 126.933594 100.882812 C 126.933594 100.882812 126.914062 100.882812 126.933594 100.882812 C 126.894531 100.863281 126.878906 100.84375 126.894531 100.824219 C 127.210938 99.792969 127.714844 99.828125 127.730469 99.828125 C 127.75 99.828125 127.769531 99.847656 127.769531 99.886719 C 127.769531 99.90625 127.75 99.921875 127.714844 99.921875 C 127.714844 99.921875 127.285156 99.886719 126.988281 100.84375 C 126.96875 100.882812 126.953125 100.882812 126.933594 100.882812 Z M 126.933594 100.882812 " fill-opacity="1" fill-rule="nonzero"/><path fill="#db7157" d="M 118.609375 100.789062 C 118.609375 100.789062 117.589844 100.261719 117.140625 101.089844 C 116.453125 102.347656 118.332031 104.09375 119.484375 102.835938 Z M 118.609375 100.789062 " fill-opacity="1" fill-rule="nonzero"/><path fill="#000000" d="M 118.871094 102.289062 C 118.851562 102.289062 118.851562 102.289062 118.832031 102.273438 C 118.21875 101.464844 117.828125 101.652344 117.828125 101.652344 C 117.8125 101.671875 117.773438 101.652344 117.773438 101.632812 C 117.753906 101.613281 117.773438 101.578125 117.792969 101.578125 C 117.8125 101.558594 118.238281 101.351562 118.90625 102.234375 C 118.925781 102.253906 118.925781 102.289062 118.90625 102.308594 C 118.886719 102.289062 118.886719 102.289062 118.871094 102.289062 Z M 118.871094 102.289062 " fill-opacity="1" fill-rule="nonzero"/><path fill="#db7157" d="M 121.695312 104.527344 L 121.339844 108.191406 L 124.742188 108.191406 L 124.257812 104.488281 Z M 121.695312 104.527344 " fill-opacity="1" fill-rule="nonzero"/><path fill="#000000" d="M 121.65625 104.902344 C 121.769531 104.957031 124.59375 106.988281 124.59375 106.988281 L 124.257812 104.488281 Z M 121.65625 104.902344 " fill-opacity="0.38" fill-rule="nonzero"/><path fill="#db7157" d="M 117.941406 98.289062 C 117.941406 98.289062 119.019531 105.953125 123.625 105.148438 C 128.605469 104.261719 126.46875 96.785156 126.46875 96.785156 C 126.46875 96.785156 125.855469 93.347656 121.582031 94.097656 C 117.644531 94.792969 117.941406 98.289062 117.941406 98.289062 Z M 117.941406 98.289062 " fill-opacity="1" fill-rule="nonzero"/><path fill="#000000" d="M 121.601562 99.980469 C 121.636719 100.1875 121.507812 100.375 121.304688 100.414062 C 121.097656 100.449219 120.914062 100.316406 120.875 100.113281 C 120.839844 99.90625 120.96875 99.71875 121.171875 99.679688 C 121.378906 99.640625 121.5625 99.773438 121.601562 99.980469 Z M 121.601562 99.980469 " fill-opacity="1" fill-rule="nonzero"/><path fill="#000000" d="M 125.222656 99.339844 C 125.261719 99.546875 125.132812 99.734375 124.925781 99.773438 C 124.722656 99.8125 124.535156 99.679688 124.5 99.472656 C 124.460938 99.265625 124.59375 99.078125 124.796875 99.039062 C 125 99.003906 125.1875 99.132812 125.222656 99.339844 Z M 125.222656 99.339844 " fill-opacity="1" fill-rule="nonzero"/><path fill="#000000" d="M 123.476562 101.613281 L 123.050781 101.691406 C 123.011719 101.691406 122.976562 101.671875 122.976562 101.632812 L 122.863281 101.03125 C 122.863281 100.996094 122.882812 100.957031 122.921875 100.957031 C 122.957031 100.957031 122.996094 100.976562 122.996094 101.011719 L 123.085938 101.539062 L 123.457031 101.484375 C 123.496094 101.484375 123.53125 101.5 123.53125 101.539062 C 123.53125 101.578125 123.515625 101.597656 123.476562 101.613281 Z M 123.476562 101.613281 " fill-opacity="1" fill-rule="nonzero"/><path fill="#000000" d="M 123.625 97.933594 C 123.625 97.933594 123.589844 98.363281 124.21875 98.269531 C 124.703125 98.195312 125.316406 98.214844 125.613281 98.234375 C 125.78125 98.234375 125.949219 98.140625 126.003906 98.007812 C 126.042969 97.894531 126.023438 97.78125 125.910156 97.726562 C 125.707031 97.59375 125 97.332031 124.40625 97.425781 C 123.644531 97.539062 123.625 97.933594 123.625 97.933594 Z M 123.625 97.933594 " fill-opacity="1" fill-rule="nonzero"/><path fill="#000000" d="M 121.65625 98.289062 C 121.65625 98.289062 121.84375 98.683594 121.191406 98.816406 C 120.710938 98.910156 120.132812 99.132812 119.875 99.246094 C 119.722656 99.304688 119.539062 99.285156 119.445312 99.171875 C 119.371094 99.078125 119.351562 98.964844 119.425781 98.871094 C 119.574219 98.683594 120.152344 98.195312 120.746094 98.082031 C 121.507812 97.933594 121.65625 98.289062 121.65625 98.289062 Z M 121.65625 98.289062 " fill-opacity="1" fill-rule="nonzero"/><path fill="#ffffff" d="M 124.3125 102.195312 C 124.3125 102.195312 124.386719 102.855469 123.515625 103.003906 C 122.660156 103.15625 122.492188 102.515625 122.492188 102.515625 C 123.402344 101.878906 124.3125 102.195312 124.3125 102.195312 Z M 124.3125 102.195312 " fill-opacity="0.43" fill-rule="nonzero"/><path fill="#000000" d="M 123.421875 102.609375 C 122.769531 102.722656 122.269531 102.554688 122.25 102.535156 C 122.214844 102.515625 122.195312 102.480469 122.214844 102.460938 C 122.234375 102.421875 122.269531 102.402344 122.289062 102.421875 C 122.308594 102.421875 123.382812 102.816406 124.445312 102.046875 C 124.480469 102.027344 124.519531 102.027344 124.535156 102.066406 C 124.554688 102.101562 124.554688 102.140625 124.519531 102.160156 C 124.144531 102.421875 123.757812 102.554688 123.421875 102.609375 Z M 123.421875 102.609375 " fill-opacity="1" fill-rule="nonzero"/><path fill="#db7157" d="M 119.371094 108.453125 L 123.234375 107.625 L 126.730469 108.265625 C 126.730469 108.265625 126.023438 109.675781 123.085938 109.65625 C 120.152344 109.636719 119.371094 108.453125 119.371094 108.453125 Z M 119.371094 108.453125 " fill-opacity="1" fill-rule="nonzero"/><path fill="#000000" d="M 117.457031 98.140625 C 117.457031 98.140625 120.503906 96.710938 120.375 93.816406 C 120.375 93.816406 116.84375 93.742188 117.457031 98.140625 Z M 117.457031 98.140625 " fill-opacity="1" fill-rule="nonzero"/><path fill="#000000" d="M 119.59375 93.910156 C 119.59375 93.910156 120.988281 97.574219 126.953125 96.316406 C 126.953125 96.316406 125.984375 92.992188 122.882812 92.972656 C 119.800781 92.953125 119.59375 93.910156 119.59375 93.910156 Z M 119.59375 93.910156 " fill-opacity="1" fill-rule="nonzero"/><path fill="#db7157" d="M 121.75 118.824219 L 119.464844 119.125 L 119.277344 118.617188 C 119.203125 118.429688 119.035156 118.296875 118.851562 118.277344 C 118.664062 118.261719 118.5 118.375 118.480469 118.5625 L 118.183594 121.136719 L 118.386719 123.125 C 119.910156 123.296875 120.429688 122.863281 120.597656 122.449219 C 120.652344 122.429688 120.691406 122.429688 120.746094 122.414062 L 122.363281 121.828125 C 122.53125 121.792969 122.621094 121.625 122.546875 121.453125 C 122.511719 121.324219 122.382812 121.152344 122.027344 121.210938 L 122.398438 121.152344 C 122.566406 121.117188 122.660156 120.945312 122.605469 120.757812 C 122.546875 120.589844 122.34375 120.476562 122.101562 120.476562 L 122.363281 120.421875 C 122.546875 120.382812 122.640625 120.175781 122.546875 119.96875 C 122.472656 119.78125 122.269531 119.6875 122.085938 119.707031 L 121.675781 119.761719 L 122.066406 119.59375 C 122.269531 119.539062 122.34375 119.3125 122.234375 119.105469 C 122.160156 118.898438 121.933594 118.804688 121.75 118.824219 Z M 121.75 118.824219 " fill-opacity="1" fill-rule="nonzero"/><path fill="#ffffff" d="M 110.769531 124.460938 L 120.597656 122.714844 C 121.527344 122.542969 122.472656 122.730469 123.253906 123.238281 L 123.347656 123.183594 C 124.144531 122.714844 125.074219 122.5625 125.96875 122.730469 L 135.757812 124.628906 Z M 110.769531 124.460938 " fill-opacity="1" fill-rule="nonzero"/><g clip-path="url(#527660dc7b)"><path fill="#3f2952" d="M 109.839844 124.328125 L 136.6875 124.328125 L 136.6875 125.964844 L 109.839844 125.964844 Z M 109.839844 124.328125 " fill-opacity="1" fill-rule="nonzero"/><path fill="#db7157" d="M 109.839844 124.328125 L 136.6875 124.328125 L 136.6875 125.964844 L 109.839844 125.964844 Z M 109.839844 124.328125 " fill-opacity="0.56" fill-rule="nonzero"/></g><g clip-path="url(#10ba76bf78)"><path fill="#000000" d="M 122.472656 124.328125 L 124.089844 124.328125 L 124.089844 125.964844 L 122.472656 125.964844 Z M 122.472656 124.328125 " fill-opacity="0.31" fill-rule="nonzero"/></g><path fill="#000000" d="M 116.4375 116.117188 C 116.417969 116.117188 116.378906 116.101562 116.378906 116.082031 L 115.527344 113.300781 C 115.507812 113.261719 115.527344 113.226562 115.5625 113.226562 C 115.601562 113.207031 115.636719 113.226562 115.636719 113.261719 L 116.492188 116.042969 C 116.511719 116.082031 116.492188 116.117188 116.453125 116.117188 C 116.4375 116.117188 116.4375 116.117188 116.4375 116.117188 Z M 116.4375 116.117188 " fill-opacity="1" fill-rule="nonzero"/><path fill="#000000" d="M 129.886719 115.78125 C 129.832031 115.761719 129.8125 115.722656 129.832031 115.707031 L 130.480469 113.5625 C 130.5 113.527344 130.539062 113.507812 130.554688 113.527344 C 130.59375 113.542969 130.613281 113.582031 130.59375 113.601562 L 129.941406 115.742188 C 129.941406 115.761719 129.90625 115.78125 129.886719 115.78125 Z M 129.886719 115.78125 " fill-opacity="1" fill-rule="nonzero"/><path fill="#000000" d="M 123.03125 122.449219 C 122.996094 122.449219 122.976562 122.429688 122.976562 122.394531 C 122.957031 122.355469 122.996094 122.320312 123.011719 122.320312 L 128.046875 120.871094 C 128.085938 120.851562 128.121094 120.890625 128.121094 120.910156 C 128.140625 120.945312 128.105469 120.984375 128.085938 120.984375 Z M 123.03125 122.449219 " fill-opacity="1" fill-rule="nonzero"/></svg>